<?xml version='1.0' encoding='utf-8'?>
<svg xmlns="http://www.w3.org/2000/svg" width="399.3158mm" height="239.13092mm" viewBox="0 0 399.3158 239.13092" version="1.1" id="svg5" xml:space="preserve"><defs id="defs2" /><g id="layer1"><path style="fill:#000000;stroke-width:1" d="m 215.82800000000134 238.45629999999983 c -2.218,-2.4249 -2.209,-7.5201 0.02,-9.361 0.742,-0.6145 0.65,-0.988 -0.245,-0.988 -1.355,0 -2.345,0.5742 -3.329,1.9313 -0.526,0.7274 -0.961,1.195 -0.965,1.0391 0,-0.1568 -0.275,-0.6333 -0.602,-1.0597 l -0.596,-0.774 -1.295,0.8976 c -1.502,1.04 -2.431,2.4079 -2.822,4.1556 l -0.278,1.2361 -0.406,-0.9486 c -1.035,-2.4106 0,-6.4192 2.213,-8.6407 1.288,-1.2882 2.133,-1.6286 4.051,-1.6322 1.249,0 4.798,-1.4843 4.798,-2.0038 0,-0.054 -0.646,-0.5626 -1.437,-1.1305 -1.719,-1.2344 -2.613,-1.1421 -3.582,0.3699 l -0.659,1.0293 v -1.1063 c 0,-0.6082 0.211,-1.6724 0.457,-2.3658 0.253,-0.7085 0.33,-1.3795 0.176,-1.5326 -0.894,-0.894 -4.298,1.512 -4.654,3.2902 -0.314,1.5667 -0.826,0.6548 -0.598,-1.0651 0.401,-3.017 1.511,-4.6527 4.034,-5.9436 1.589,-0.8124 2.146,-0.7596 3.676,0.3485 0.72,0.5214 1.617,0.9486 1.994,0.9486 0.378,0 1.693,0.7579 2.926,1.685 3.808,2.8647 4.361,2.9516 5.714,0.8967 1.636,-2.4822 1.3,-5.4276 -1.483,-13.0104 -2.995,-8.1561 -3.356,-14.7939 -0.877,-16.1205 1.024,-0.5482 0.536,-0.7803 -3.641,-1.7361 -2.087,-0.4765 -5.695,-1.5031 -8.02,-2.2824 -4.676,-1.5658 -4.742,-1.5641 -6.799,0.2427 -2.85,2.502 -2.905,3.2706 -0.418,5.8997 0.874,0.9235 1.508,1.7593 1.411,1.856 -0.836,0.8358 -8.237,3.5276 -19.513,7.0982 -7.817,2.4751 -8.972,3.0475 -9.868,4.8919 l -0.685,1.4091 0.893,0.9325 c 0.858,0.8949 0.888,1.032 0.751,3.4121 -0.114,1.9563 -0.336,2.8315 -1.053,4.1483 -0.899,1.6528 -2.424,3.0412 -1.911,1.7405 0.733,-1.856 0.604,-2.552 -0.733,-3.9593 l -1.303,-1.3706 -0.904,1.083 c -0.897,1.0723 -0.911,1.0768 -1.275,0.3951 -0.203,-0.3781 -0.516,-0.688 -0.697,-0.688 -0.746,0 -2.118,1.8794 -2.935,4.0212 -1.087,2.8486 -1.613,3.0716 -5.7,2.4168 -3.395,-0.5437 -4.571,-0.3063 -5.264,1.0624 -0.461,0.911 -0.547,0.9522 -1.009,0.4909 -0.69,-0.6906 -1.83,0.063 -3.076,2.0245 -1.291,2.0343 -1.513,3.8975 -0.696,5.8315 0.795,1.8794 0.385,1.9672 -1.235,0.2634 -1.708,-1.7952 -2.306,-4.0239 -2.083,-7.7674 0.195,-3.2633 0.74,-4.6491 2.145,-5.4472 1.365,-0.7767 1.179,-1.3159 -0.452,-1.3159 -1.691,0 -2.709,0.7318 -3.519,2.5297 l -0.593,1.3123 -0.493,-1.0293 c -0.704,-1.4673 -1.128,-1.4547 -2.135,0.072 -1.182,1.7853 -1.264,4.6509 -0.176,6.1755 1.282,1.797 0.668,1.9036 -1.207,0.2097 -2.35,-2.1231 -3.353,-5.51 -2.53,-8.5494 0.64,-2.3685 3.968,-4.9645 6.843,-5.3407 1.772,-0.2311 2.346,-0.5751 2.346,-1.4073 0,-0.3198 0.441,-1.0848 0.98,-1.7002 1.34,-1.5255 0.893,-2.5207 -0.834,-1.8578 -0.295,0.1128 -0.874,0.9307 -1.287,1.8166 l -0.75,1.6115 v -1.4896 c 0,-2.1876 1.062,-4.7352 2.54,-6.0699 1.418,-1.281 2.382,-1.4162 3.548,-0.4989 0.442,0.3475 1.252,0.6324 1.801,0.6324 0.808,0 1.463,0.4425 3.446,2.3317 2.204,2.1006 2.608,2.3541 4.062,2.5539 2.071,0.2849 3.919,-0.4864 5.895,-2.4634 1.918,-1.917 2.572,-3.3404 5.199,-11.3084 3.323,-10.0785 5.317,-14.4463 8.82,-19.3185 1.93,-2.6829 2.295,-2.8396 4.929,-2.1078 0.668,0.1855 1.292,0.2598 1.386,0.1657 0.504,-0.5043 -3.059,-4.435 -5.782,-6.3788 -4.905,-3.5026 -9.964,-4.0723 -13.782,-1.5524 -2.228,1.4708 -4.231,5.2896 -4.639,8.8467 l -0.219,1.8955 -0.855,-1.8426 c -0.47,-1.0131 -1.591,-3.0752 -2.492,-4.582 -10.35,-17.3307 -23.664,-28.3265 -35.506,-29.3262 -4.519,-0.3816 -11.049,1.4019 -16.206,4.4261 -5.097,2.9875 -7.115,5.5575 -7.639,9.7273 -0.271,2.1634 0,8.957 0.462,11.8746 0.147,0.9137 0.114,1.0677 -0.146,0.6602 -1.004,-1.5802 -7.212,-19.1224 -10.267,-29.0172 -9.255,-29.9622 -13.206,-37.1195 -21.287,-38.5644 -10.177,-1.8185 -26.422,11.4687 -28.217,23.0799 -0.201,1.3042 -0.468,2.7258 -0.593,3.1603 -0.419,1.4592 -0.688,-10.1269 -0.348,-15.0107 0.498,-7.1698 0.719,-8.7213 3.38,-23.7006 0.882,-4.9645 1.185,-7.5515 1.203,-10.2702 0.03,-3.5679 0,-3.6718 -1.075,-5.6587 -3.639,-6.713 -13.318,-7.0839 -22.547,-0.8626 -4.417,2.9776 -14.464,13.5075 -18.828,19.7323 -0.402,0.5751 -0.791,0.9872 -0.863,0.9155 -0.23,-0.2311 2.417,-8.4669 4.084,-12.7049 5.142,-13.0731 12.526,-24.7075 21.536,-33.9296 9.3,-9.5205 18.441,-16.1143 37.625,-27.1441 3.475,-1.9985 8.185,-4.822 10.466,-6.2741 5.057,-3.2194 7.151,-4.2218 8.83,-4.2263 2.002,0 5.548,1.0463 14.316,4.2415 25.029,9.1209 34.337,10.6858 42.304,7.1126 3.633,-1.6304 4.5,-3.5285 2.517,-5.5118 -1.708,-1.7083 -7.369,-3.0089 -13.514,-3.1057 -1.867,-0.027 -3.351,-0.099 -3.297,-0.1541 0.765,-0.7945 8.62,-1.6303 15.36,-1.6348 h 4.615 l 1.558,1.659 c 0.857,0.9128 2.373,2.673 3.369,3.9119 l 1.811,2.2529 -0.953,2.0137 c -0.524,1.1072 -0.953,2.2583 -0.953,2.5566 0,0.2992 1.054,3.1433 2.342,6.3207 4.147,10.2262 6.267,17.449 6.812,23.2071 0.177,1.8587 0.251,3.4487 0.166,3.5338 -0.08,0.09 -1.036,-1.753 -2.115,-4.0847 -4.527,-9.7892 -9.769,-19.5658 -10.491,-19.5658 -0.668,0 -2.851,1.7235 -4.077,3.2204 -5.68,6.9316 -6.122,20.1686 -1.333,39.9152 0.759,3.129 2.548,9.67 3.975,14.5368 2.512,8.57 5.03,17.2976 5.034,17.4598 0,0.045 0.133,0.081 0.291,0.081 0.307,0 2.01,-4.2263 2.374,-5.8925 0.136,-0.6216 0.05,-1.4046 -0.241,-2.0916 -0.408,-0.9782 -0.397,-1.3527 0.105,-3.4604 0.31,-1.3007 1.1,-4.9457 1.757,-8.1015 0.655,-3.155 1.238,-5.6909 1.295,-5.6345 0.05,0.054 0.458,1.5058 0.893,3.2212 0.435,1.7155 0.923,3.2508 1.084,3.4112 0.758,0.7578 3.415,-4.9035 5.839,-12.4416 3.027,-9.4093 7.433,-17.5063 13.411,-24.6502 2.514,-3.0035 9.989,-10.4072 10.508,-10.4072 0.149,0 -0.772,1.3007 -2.048,2.8907 -6.225,7.7584 -12.747,20.8754 -13.078,26.3029 -0.181,2.974 0.237,3.1353 1.31,0.5061 3.759,-9.2041 19.748,-24.3913 32.738,-31.0953 5.663,-2.9221 12.526,-4.8695 14.328,-4.066 0.613,0.2741 0.502,0.3673 -1.046,0.8743 -7.031,2.3039 -16.267,9.2687 -24.735,18.6502 -3.979,4.4082 -8.967,10.9904 -8.458,11.1597 0.557,0.1863 2.865,-0.4927 6.821,-2.0066 6.438,-2.4625 10.208,-4.6312 13.708,-7.8891 l 2.038,-1.8955 -0.869,1.6079 c -1.367,2.5315 -4.142,6.0484 -8.214,10.4135 -3.729,3.997 -3.751,4.0293 -3.003,4.4449 1.206,0.6674 3.436,0.5088 6.914,-0.4918 4.025,-1.1582 7.557,-1.71 9.185,-1.435 1.718,0.2902 1.805,0.6673 0.214,0.9217 -3.473,0.5545 -10.625,5.5575 -9.642,6.7444 1.245,1.5013 4.931,2.0926 10.043,1.6106 4.462,-0.421 6.743,-0.027 8.442,1.453 l 0.88,0.7686 -1.381,-0.4694 c -1.235,-0.4192 -1.568,-0.4148 -3.16,0.045 -3.512,1.005 -8.069,4.0695 -9.381,6.3072 -1.51,2.5781 -1.034,2.9713 2.285,1.8865 3.893,-1.272 6.346,-1.6008 8.441,-1.1323 1.774,0.3969 2.403,0.9809 1.063,0.9872 -2.834,0.01 -8.454,6.326 -8.454,9.4989 v 0.8689 l 2.387,-1.2353 c 2.783,-1.4395 5.901,-1.7181 7.821,-0.6978 l 1.011,0.5375 -1.532,0.2302 c -3.067,0.4622 -5.049,2.5073 -7.769,8.0173 -1.918,3.885 -2.284,5.1167 -1.412,4.7485 3.022,-1.2729 6.729,-1.7396 8.611,-1.0839 1.352,0.4712 1.265,0.6181 -0.995,1.6796 -2.322,1.0911 -7.003,5.5575 -8.108,7.736 -0.814,1.6035 -0.894,1.5972 2.454,0.1962 2.732,-1.143 5.854,-1.3921 7.51,-0.5984 l 1.241,0.5939 -1.738,0.2625 c -3.367,0.5088 -5.449,1.9653 -6.539,4.5756 -0.645,1.5417 -0.238,1.8077 2.685,1.7531 5.021,-0.094 12.251,-3.6611 21.55,-10.6312 12.505,-9.3735 14.814,-15.5687 14.446,-38.7794 -0.158,-9.9029 -0.368,-12.2534 -1.672,-18.6449 -1.636,-8.0217 -4.908,-16.6813 -8.117,-21.4889 -1.1,-1.6465 -5.91,-6.6396 -6.387,-6.6297 -0.562,0.01 -3.218,2.5771 -5.718,5.5243 -6.055,7.1367 -10.188,15.257 -11.902,23.3844 l -0.4,1.8964 -0.103,-3.7928 c -0.124,-4.5774 0.26,-7.022 1.884,-12.008 1.885,-5.784 5.186,-12.3743 9.395,-18.755 l 1.74,-2.6381 -0.413,-2.2601 c -0.226,-1.2433 -0.43,-2.5288 -0.454,-2.8566 -0.03,-0.3807 1.035,-1.5721 2.927,-3.2893 l 2.968,-2.6919 9.661,0.2114 c 5.312,0.1165 9.774,0.3252 9.913,0.465 0.14,0.1397 -2.059,0.5759 -4.885,0.9701 -7.245,1.0104 -10.23,1.5533 -11.531,2.0961 -1.12,0.4685 -1.123,0.4757 -0.528,1.1341 2.333,2.5825 9.969,3.9325 17.821,3.1514 10.453,-1.0392 19.727,-3.5545 36.809,-9.9827 11.278,-4.2433 9.924,-4.1654 15.808,-0.9181 5.555,3.0653 8.024,4.2711 15.775,7.7019 20.166,8.9265 27.782,13.1107 38.578,21.1934 21.238,15.8984 34.381,38.5026 34.265,58.9265 l -0.02,3.7919 -0.615,-2.9284 c -2.834,-13.4941 -13.242,-24.1835 -28.38,-29.1461 -9.141,-2.9973 -15.394,-2.7868 -18.473,0.6208 -2.775,3.0707 -2.785,6.5786 -0.05,19.1295 1.729,7.9527 3.643,17.3809 3.643,17.947 0,0.1523 -0.7,-0.7695 -1.554,-2.0469 -5.423,-8.1059 -17.262,-13.9509 -28.31,-13.9742 -7.285,-0.018 -11.977,3.0322 -15.766,10.2406 -3.5,6.6629 -7.177,20.6819 -9.818,37.4474 -1.391,8.8253 -1.586,9.4281 -1.84,5.6784 -0.339,-4.9824 -1.96,-10.0597 -4.173,-13.0651 -5.127,-6.9656 -17.654,-4.6822 -26.637,4.8543 -4.135,4.3902 -6.906,9.8062 -9.082,17.7455 -1.294,4.719 -1.34,5.4733 -0.389,6.3395 1.704,1.5515 2.502,1.6482 5.674,0.6853 2.427,-0.7373 5.215,-0.6746 6.795,0.154 0.803,0.4201 0.765,0.4399 -1.089,0.5742 -2.453,0.1774 -4.252,1.2998 -5.195,3.2401 -1.018,2.0952 -0.691,2.5261 1.722,2.2726 4.846,-0.5097 8.139,-0.576 10.69,-0.2132 3.67,0.5204 3.961,0.8322 1.01,1.0776 -4.148,0.3458 -6.577,1.4682 -7.38,3.4094 -0.351,0.8465 -0.319,1.0221 0.298,1.6366 1.178,1.1743 4.176,0.9038 8.253,-0.7444 2.714,-1.0974 3.778,-1.3634 5.846,-1.4628 l 2.528,-0.1219 -1.985,0.7614 c -3.628,1.3912 -5.898,3.4542 -5.7,5.1786 0.165,1.4288 1.776,1.1412 5.487,-0.9791 1.719,-0.9818 3.245,-1.7853 3.391,-1.7853 0.145,0 -0.304,0.7928 -0.998,1.7611 -1.886,2.6336 -2.026,4.5291 -0.367,4.9626 0.937,0.2455 2.029,-0.7658 3.798,-3.5132 1.519,-2.3622 6.024,-7.1538 5.543,-5.897 -1.519,3.9728 -1.918,7.4261 -0.857,7.4261 1.896,0 5.118,-6.9137 5.118,-10.9805 0,-1.6062 0.452,-1.0069 1.239,1.641 0.865,2.9158 1.518,3.8223 2.523,3.5034 1.602,-0.5088 1.933,-2.9023 1.095,-7.9097 -0.364,-2.1723 -0.455,-3.7462 -0.293,-5.0326 l 0.236,-1.8721 0.926,1.9295 c 0.925,1.9286 2.444,3.5527 3.321,3.5527 1.175,0 3.13,-1.5856 4.375,-3.5491 0.546,-0.86 0.543,-0.8681 -0.782,-2.3703 -2.307,-2.6175 -3.039,-4.6151 -2.576,-7.0373 0.215,-1.1269 0.32,-1.2908 0.505,-0.7901 0.129,0.3476 0.389,1.0418 0.577,1.5435 0.37,0.9853 2.662,3.3547 3.244,3.3547 0.196,0 0.817,-0.5724 1.379,-1.272 l 1.022,-1.272 -0.782,-0.9299 c -2.095,-2.4902 -2.326,-6.8375 -0.563,-10.6043 1.158,-2.475 1.508,-2.4902 1,-0.045 -0.375,1.8014 -0.243,2.888 0.542,4.4851 0.58,1.1825 1.965,2.6856 2.474,2.6856 0.63,0 2.412,-2.243 2.229,-2.8056 -0.09,-0.2822 -0.411,-1.2039 -0.708,-2.0486 -0.677,-1.9278 -0.259,-4.7056 0.993,-6.5993 0.911,-1.3759 1.288,-1.4261 0.786,-0.1039 -0.754,1.986 0.19,5.8387 1.344,5.4804 0.522,-0.1621 5.366,-7.2594 6.372,-9.3377 0.445,-0.9172 0.985,-2.5995 1.201,-3.739 0.301,-1.5891 0.441,-1.8999 0.601,-1.3347 0.397,1.4163 0.274,4.8641 -0.257,7.1332 -0.607,2.5959 -0.512,2.8557 0.839,2.2967 1.464,-0.6064 2.328,-1.8551 3.647,-5.2681 2.13,-5.5126 5.822,-8.3747 10.693,-8.2878 l 1.938,0.036 -1.352,0.266 c -3.001,0.5921 -5.64,2.6677 -7.03,5.5315 -0.658,1.3562 -0.835,3.4461 -0.317,3.7659 0.549,0.3395 2.078,-0.7068 3.552,-2.4321 2.281,-2.6694 5.712,-4.0857 9.73,-4.0167 1.225,0.018 1.104,0.099 -1.672,1.0821 -2.535,0.8976 -4.409,2.8988 -3.626,3.8716 0.717,0.8877 2.803,0.456 5.037,-1.0427 2.577,-1.728 5.681,-2.5324 8.09,-2.0961 l 1.493,0.2705 -1.58,0.2445 c -2.392,0.37 -4.163,1.255 -4.893,2.4437 l -0.645,1.049 0.67,0.5527 c 0.894,0.7372 2.891,0.7095 5.393,-0.072 3.531,-1.1062 5.996,-0.6082 9.291,1.8803 1.919,1.4485 2.315,2.2386 0.62,1.2389 -2.593,-1.53 -6.648,-1.9573 -8.896,-0.937 -1.552,0.705 -1.822,1.0695 -1.561,2.1078 0.332,1.3257 1.905,2.0352 4.023,1.813 2.602,-0.2714 5.372,0.3575 8.639,1.9618 2.501,1.2281 6.416,4.1072 6.064,4.4592 -0.07,0.072 -1.326,-0.4479 -2.79,-1.1502 -3.659,-1.7557 -6.091,-2.1929 -7.733,-1.3911 -2.52,1.2308 -1.187,3.6019 3.984,7.0776 2.922,1.9653 4.068,3.1182 5.091,5.1248 0.816,1.598 1.868,5.7034 1.84,7.1725 l -0.02,1.1341 -0.412,-1.1153 c -2.254,-6.1164 -6.337,-9.6592 -8.564,-7.4314 -0.702,0.7023 -0.776,1.031 -0.776,3.4622 0,2.5834 0.05,2.7931 1.455,5.4473 2.361,4.4753 3.062,7.7225 3.061,14.174 0,2.9677 -0.151,5.7966 -0.335,6.3197 -0.289,0.817 -0.339,0.5939 -0.362,-1.616 -0.04,-4.4628 -1.148,-8.217 -2.643,-9.0169 -1.309,-0.7014 -3.955,1.5828 -5.755,4.9698 -1.049,1.9725 -1.003,3.3645 0.214,6.3502 0.926,2.2726 1.018,2.8262 1.142,6.8133 0.159,5.1418 -0.147,6.4909 -0.734,3.2446 -0.667,-3.6835 -1.842,-5.6121 -3.662,-6.0116 -4.427,-0.9729 -17.756,14.2877 -18.579,21.2713 -0.4,3.3896 -0.749,2.5879 -0.59,-1.3554 0.207,-5.166 0.981,-7.3087 7.352,-20.3826 2.837,-5.8227 5.516,-11.5969 5.954,-12.8322 2.72,-7.684 1.181,-19.6678 -3.14,-24.4504 -4.511,-4.9931 -11.111,-3.5554 -18.791,4.0937 -4.652,4.6339 -6.578,7.4297 -11.436,16.598 -8.463,15.9728 -14.87,23.3074 -24.412,27.9476 -6.022,2.9274 -10.871,4.0266 -19.188,4.3482 l -4.967,0.1925 0.157,1.9269 c 0.09,1.0597 0.216,2.5906 0.289,3.4031 0.144,1.6366 1.697,6.8975 2.035,6.8975 0.118,0 0.77,-0.5688 1.449,-1.2639 0.777,-0.7955 1.522,-1.264 2.009,-1.264 1.073,0 3.003,2.1096 3.64,3.9782 0.749,2.1991 0.635,2.5028 -0.467,1.2469 -1.595,-1.8157 -3.311,-1.3705 -1.943,0.5034 0.304,0.4157 0.702,1.0257 0.884,1.3545 0.186,0.335 0.982,0.7623 1.817,0.9746 2.675,0.679 3.855,2.3693 3.619,5.1866 -0.08,0.971 -0.331,2.1929 -0.555,2.7142 l -0.408,0.9477 -0.249,-1.3239 c -0.619,-3.292 -3.476,-4.7987 -4.531,-2.3891 -0.285,0.6522 -0.859,1.6518 -1.273,2.2225 -0.649,0.8904 -0.71,1.1806 -0.432,2.054 0.178,0.559 0.487,1.6626 0.686,2.4518 0.2,0.7891 0.693,1.8507 1.095,2.3595 0.632,0.7999 0.701,1.1394 0.515,2.5153 -0.331,2.4267 -2.352,5.991 -2.352,4.1448 0,-0.4586 -1.927,-6.3905 -2.74,-8.4329 -0.249,-0.6253 -1.192,-1.7763 -2.096,-2.5575 -1.203,-1.0391 -1.8,-1.8569 -2.229,-3.0501 -0.743,-2.0729 -1.011,-2.2207 -1.513,-0.8349 -0.245,0.6781 -0.563,1.0588 -0.807,0.9648 -1.25,-0.4802 -1.444,3.5688 -0.254,5.3218 0.992,1.4637 0.992,1.4664 -0.205,1.1233 -2.789,-0.7999 -4.219,-2.6022 -4.219,-5.3146 0,-1.8812 0.06,-2.0648 1.026,-2.8675 0.656,-0.5473 1.028,-1.1421 1.028,-1.6464 0,-0.4452 0.482,-1.3526 1.106,-2.0809 0.608,-0.7113 1.105,-1.5999 1.105,-1.977 0,-0.8922 -2.176,-9.2535 -2.493,-9.5733 -0.133,-0.1352 -1.298,-0.5446 -2.588,-0.9092 -2.861,-0.8098 -8.168,-3.0358 -11.301,-4.7405 l -2.32,-1.263 -2.104,2.0101 c -2.417,2.3093 -4.101,3.5599 -8.146,6.0483 -5.165,3.1783 -7.449,5.8316 -7.909,9.1908 -0.35,2.5602 0.06,3.6136 2.206,5.6031 1.902,1.7656 1.948,1.8454 1.903,3.3583 -0.07,2.476 -1.549,4.8919 -1.549,2.5369 0,-1.0337 -0.191,-1.4413 -1.025,-2.1866 -1.298,-1.1592 -1.503,-1.1475 -1.949,0.112 -0.332,0.9361 -0.4,0.9782 -0.777,0.4738 -0.227,-0.3045 -0.618,-0.5536 -0.869,-0.5536 -0.752,0 -2.375,1.9376 -3.202,3.8223 -0.914,2.0818 -0.991,2.1195 -5.074,2.5091 -3.502,0.3333 -4.336,0.7131 -4.951,2.2556 -0.561,1.4073 -0.533,1.3912 -1.256,0.7373 -1.416,-1.281 -2.79,1.5443 -2.081,4.2791 0.449,1.7298 0.3,1.9188 -0.672,0.8546 z m -41.174,-110.3347 c 0,-0.757 1.856,-4.8453 3.356,-7.3921 1.698,-2.8808 4.389,-6.6619 7.695,-10.8112 6.608,-8.294 7.933,-10.5828 8.159,-14.0969 0.132,-2.0487 0.05,-2.5226 -0.699,-4.0508 -1.357,-2.7751 -5.221,-5.8423 -7.387,-5.8629 -2.01,-0.018 -5.12,3.2159 -5.12,5.3246 0,0.5589 0.112,0.5912 1.114,0.3144 0.612,-0.1693 1.753,-0.2643 2.535,-0.2114 l 1.42,0.096 -3.132,2.5772 c -1.723,1.418 -4.083,3.6924 -5.246,5.0549 -1.648,1.9313 -2.272,2.4571 -2.834,2.3828 -2.271,-0.2974 -5.155,4.6312 -6.348,10.8453 -0.301,1.5622 -1.006,3.9074 -1.57,5.2107 -0.563,1.3034 -1.127,2.6551 -1.252,3.0027 -0.186,0.5169 -0.448,0.1953 -1.445,-1.7728 -1.319,-2.604 -2.108,-3.2167 -4.672,-3.627 -1.158,-0.1854 -1.324,-0.137 -1.328,0.3816 0,0.327 -0.13,0.7919 -0.283,1.0329 -0.298,0.472 -0.726,-0.1201 -4.308,-5.9695 -2.172,-3.5474 -2,-3.3055 -2.202,-3.103 -0.262,0.2615 1.363,5.5287 2.24,7.2576 1.941,3.8313 7.923,8.1176 17.199,12.3233 3.593,1.6294 4.108,1.7665 4.108,1.0938 z" id="path50" /></g></svg>